<svg width="39" height="43" viewBox="0 0 39 43" fill="none" xmlns="http://www.w3.org/2000/svg">
<path d="M18.1632 0.491656C16.0985 2.27233 14.538 4.55905 13.6366 7.12484C12.7351 9.69064 12.5241 12.4463 13.0244 15.1183C9.72428 13.2293 6.0859 12.66 1.90545 13.005C1.63268 13.0278 1.36713 13.104 1.12406 13.2292C0.880989 13.3544 0.665198 13.5261 0.489089 13.7345C0.31298 13.9429 0.180026 14.1839 0.0978706 14.4436C0.0157151 14.7032 -0.014022 14.9765 0.0103686 15.2476C0.350789 18.9695 2.07457 22.6612 4.47703 25.5464C3.57148 25.5377 2.66646 25.5932 1.76885 25.7125C1.25246 25.7809 0.782044 26.0434 0.454204 26.4461C0.126365 26.8487 -0.0340054 27.3609 0.00603234 27.8774C0.324483 31.9916 2.19258 35.8346 5.23686 38.6383C8.28114 41.442 12.2773 42.9997 16.4264 43H22.5432C26.6927 43.0002 30.6894 41.4428 33.7341 38.639C36.7789 35.8353 38.6473 31.992 38.9657 27.8774C39.0057 27.3606 38.8451 26.8481 38.5168 26.4454C38.1885 26.0427 37.7175 25.7804 37.2008 25.7125C36.3139 25.5948 35.4198 25.5393 34.5251 25.5464C36.9275 22.659 38.6513 18.9695 38.9918 15.2476C39.0161 14.9763 38.9863 14.7029 38.904 14.4431C38.8217 14.1833 38.6886 13.9422 38.5123 13.7338C38.3359 13.5254 38.1199 13.3537 37.8766 13.2286C37.6333 13.1035 37.3675 13.0275 37.0945 13.005C32.9141 12.66 29.2562 13.2293 25.9452 15.1183C26.4458 12.4465 26.2351 9.69095 25.334 7.12516C24.433 4.55938 22.8728 2.27256 20.8085 0.491656C20.4416 0.174597 19.9719 0 19.4859 0C18.9998 0 18.5301 0.174597 18.1632 0.491656ZM19.4859 20.8477C17.2601 18.5419 16.0171 15.4693 16.0171 12.2729C16.0171 9.07655 17.2601 6.004 19.4859 3.69816C21.7111 6.0039 22.9536 9.07599 22.9536 12.2719C22.9536 15.4677 21.7111 18.5398 19.4859 20.8455M19.4859 32.9363C17.1227 29.9493 13.9309 27.7167 10.3054 26.5146C10.2365 26.4471 10.1618 26.3858 10.082 26.3313C6.89467 24.175 4.18431 20.1986 3.41891 16.1533C7.47143 16.0196 10.6523 16.9878 13.5556 19.4331C15.7781 21.307 16.7647 23.5906 17.4954 25.2877C17.6862 25.7275 17.8575 26.1286 18.031 26.4693C18.1662 26.7376 18.3738 26.9632 18.6305 27.1208C18.8873 27.2785 19.1831 27.362 19.4848 27.362C19.7865 27.362 20.0823 27.2785 20.3391 27.1208C20.5958 26.9632 20.8034 26.7376 20.9386 26.4693C21.1121 26.1265 21.2856 25.7275 21.4742 25.2877C22.2071 23.5906 23.1915 21.3049 25.414 19.4331C28.3173 16.99 31.522 16.0196 35.5832 16.1533C34.8156 20.1986 32.1075 24.175 28.9201 26.3313C28.8463 26.381 28.7767 26.4365 28.7119 26.4974C25.0674 27.697 21.8587 29.935 19.4859 32.9363ZM20.8801 36.6172C23.9005 31.5928 29.5576 28.4661 35.5789 28.8047C35.0596 31.8693 33.4652 34.6519 31.0788 36.6585C28.6924 38.6651 25.6682 39.7658 22.5432 39.7655H16.4286C9.92376 39.7655 4.45101 35.0732 3.39506 28.8068C9.41421 28.4661 15.0713 31.5907 18.0917 36.6172C18.2361 36.857 18.4405 37.0556 18.685 37.1934C18.9296 37.3313 19.2059 37.4037 19.487 37.4037C19.7681 37.4037 20.0444 37.3313 20.2889 37.1934C20.5334 37.0556 20.7379 36.857 20.8823 36.6172" fill="black" fill-opacity="0.3"/>
</svg>
