<svg width="42" height="43" viewBox="0 0 42 43" fill="none" xmlns="http://www.w3.org/2000/svg">
<path d="M13.9027 1.84948C14.4452 2.48723 14.8355 3.24535 15.0427 4.06398C15.25 4.88262 15.2686 5.73937 15.097 6.56661C16.3488 5.91814 17.7104 5.52112 19.1081 5.397C21.2689 5.20364 23.4372 5.67105 25.3384 6.74004C30.2842 9.51948 34.3558 13.6819 37.0778 18.7414C37.7988 20.0766 38.2455 21.5485 38.3907 23.0668C38.5359 24.5852 38.3764 26.1179 37.922 27.5708C38.7548 27.767 39.5275 28.1702 40.1719 28.7447L40.1775 28.749C42.5016 30.8388 42.6136 34.4795 40.4519 36.6754C39.6168 37.5325 38.5257 38.0789 37.3522 38.2277C37.2122 39.393 36.7082 40.5081 35.8345 41.404C35.3203 41.9321 34.7052 42.3461 34.0278 42.6201C33.3504 42.8942 32.6251 43.0224 31.8971 42.9969C31.1691 42.9713 30.4541 42.7925 29.7966 42.4716C29.1391 42.1507 28.5532 41.6946 28.0755 41.1317V41.1288C27.5126 40.4667 27.1182 39.6725 26.9274 38.8168C25.5091 39.2804 24.0135 39.4437 22.5316 39.2968C21.0497 39.15 19.6124 38.696 18.3073 37.9625C13.3689 35.1783 9.30341 31.0167 6.58325 25.9612C5.48211 23.9237 5.02985 21.5851 5.2896 19.2718C5.4384 17.9426 5.81819 16.6513 6.41104 15.4591C5.60312 15.6342 4.7665 15.6148 3.96715 15.4024C3.16781 15.1899 2.42759 14.7903 1.80487 14.235L1.79927 14.2307C1.25544 13.7401 0.815484 13.1408 0.506514 12.4695C0.197544 11.7983 0.026103 11.0693 0.00275526 10.3277C-0.0205925 9.58602 0.104647 8.84731 0.370758 8.15709C0.636868 7.46686 1.03821 6.83973 1.55006 6.31434C2.37971 5.45179 3.47041 4.90257 4.64418 4.7563C4.78418 3.60102 5.2854 2.47585 6.16043 1.58001L6.16463 1.57571C6.67947 1.054 7.29295 0.645422 7.96747 0.375019C8.64199 0.104616 9.36335 -0.0219149 10.0873 0.00318058C10.8113 0.028276 11.5226 0.204469 12.1777 0.520962C12.8329 0.837454 13.4179 1.28758 13.8971 1.84374L13.9027 1.84948ZM27.1332 35.6549C27.269 35.2822 27.4426 34.9239 27.6554 34.5827C26.7672 35.2596 25.6882 35.6228 24.5809 35.6176C23.1949 35.6176 21.9068 35.0729 20.9268 34.0696C19.9468 33.0662 19.4147 31.7476 19.4147 30.3286C19.4147 28.9095 19.9468 27.5909 20.9268 26.5875L25.967 21.4275C26.947 20.4242 28.2351 19.8795 29.6211 19.8795C30.9932 19.8795 32.2952 20.4385 33.2753 21.4275C34.2553 22.4308 34.7873 23.7495 34.7873 25.1685C34.7873 26.3224 34.4373 27.4088 33.7793 28.3147C34.1125 28.0954 34.4681 27.9162 34.8349 27.7772C35.3995 26.5778 35.6751 25.2573 35.6389 23.9264C35.6026 22.5954 35.2554 21.2928 34.6263 20.1275C32.1609 15.543 28.4724 11.7712 23.9915 9.25269C22.5756 8.45685 20.9608 8.10916 19.3517 8.25365C17.4399 8.422 15.6468 9.27339 14.2863 10.6588L10.4082 14.6435C9.15729 15.9222 8.34676 17.583 8.09899 19.3749C7.85122 21.1668 8.17967 22.9926 9.03474 24.5766C11.4987 29.1572 15.1816 32.9282 19.6555 35.4513C20.7967 36.0913 22.0704 36.4436 23.371 36.479C24.6717 36.5144 25.9619 36.2319 27.1346 35.6549M7.40368 5.39413V5.4228C7.36588 6.57521 6.45865 7.57281 5.2616 7.58141C4.61577 7.5881 3.99873 7.85603 3.54514 8.32675L3.53674 8.33678C2.5217 9.37452 2.5567 11.0831 3.65294 12.0807C4.10998 12.4835 4.69236 12.7062 5.29542 12.7088C5.89848 12.7115 6.48269 12.4938 6.94306 12.095C7.25431 11.8105 7.64092 11.6269 8.05406 11.5672C8.4672 11.5075 8.88836 11.5744 9.26435 11.7596L11.4806 9.48059C11.3009 9.09604 11.2362 8.66565 11.2947 8.24356C11.3533 7.82147 11.5324 7.42652 11.8096 7.10841C12.1992 6.63709 12.4118 6.03899 12.4092 5.42159C12.4066 4.80419 12.1891 4.20797 11.7956 3.74006C11.569 3.47698 11.2924 3.26397 10.9827 3.11405C10.6729 2.96413 10.3366 2.88044 9.9942 2.8681C9.6518 2.85576 9.31054 2.91502 8.99127 3.04227C8.672 3.16952 8.38143 3.36208 8.13731 3.60819C7.65149 4.10699 7.40928 4.7477 7.40088 5.39413M27.6288 26.2966L25.6828 28.2889C25.6757 28.296 25.6702 28.3045 25.6666 28.3138C25.663 28.3232 25.6613 28.3333 25.6618 28.3434C25.6618 28.3677 25.6702 28.3864 25.6828 28.3978L30.1489 32.9702C30.5149 33.3436 30.728 33.8457 30.7449 34.3743C30.7618 34.903 30.5812 35.4183 30.2399 35.8154C29.3873 36.8245 29.3817 38.2994 30.1867 39.2497C30.4123 39.5158 30.6891 39.7314 30.9998 39.8831C31.3104 40.0348 31.6483 40.1192 31.9923 40.1312C32.3362 40.1432 32.6789 40.0824 32.9989 39.9527C33.3189 39.8229 33.6094 39.6271 33.8521 39.3772C34.3179 38.9068 34.5832 38.2669 34.5899 37.597C34.5969 36.3701 35.5727 35.4413 36.6998 35.404L36.7138 35.4026H36.7278C37.3578 35.3926 37.9864 35.1446 38.4722 34.6472L38.4764 34.6429C39.4747 33.6295 39.4481 31.9138 38.3322 30.9062C37.404 30.0835 35.9662 30.0906 34.9805 30.9635C34.5925 31.3128 34.089 31.4974 33.5727 31.4798C33.0563 31.4622 32.5659 31.2438 32.2014 30.8689L27.7352 26.2966C27.7284 26.2893 27.7201 26.2837 27.7109 26.28C27.7017 26.2763 27.6919 26.2746 27.682 26.2751C27.6724 26.2748 27.6629 26.2766 27.654 26.2803C27.645 26.284 27.637 26.2895 27.6302 26.2966" fill="black" fill-opacity="0.3"/>
</svg>
