<svg width="46" height="43" viewBox="0 0 46 43" fill="none" xmlns="http://www.w3.org/2000/svg">
<path d="M1.35905 12.5251C1.92374 13.4744 3.15109 13.7862 4.1004 13.2215C5.04971 12.6568 5.36151 11.4294 4.79681 10.4801L1.35905 12.5251ZM6.21114 2.02124L6.06086 0.0268923C5.97845 0.0331019 5.89651 0.0444133 5.8155 0.0607615L6.21114 2.02124ZM12.4775 5.18178L13.9576 3.83669C13.9381 3.81523 13.9182 3.7942 13.8977 3.7736L12.4775 5.18178ZM23.9659 17.8234L25.5708 19.0168C26.1413 18.2495 26.089 17.1859 25.446 16.4783L23.9659 17.8234ZM19.2277 20.8439C18.5686 21.7303 18.7529 22.9832 19.6393 23.6422C20.5257 24.3013 21.7786 24.117 22.4376 23.2306L19.2277 20.8439ZM18.0446 13.4729C19.1326 13.2823 19.8601 12.2459 19.6695 11.1578C19.4789 10.0698 18.4424 9.34233 17.3544 9.53291L18.0446 13.4729ZM6.21121 26.2515L4.22097 26.4488C4.22524 26.4919 4.23091 26.5348 4.23797 26.5775L6.21121 26.2515ZM11.4331 35.7327H13.4331C13.4331 35.1956 13.2171 34.6811 12.8337 34.305L11.4331 35.7327ZM9.43312 41C9.43312 42.1046 10.3285 43 11.4331 43C12.5377 43 13.4331 42.1046 13.4331 41H9.43312ZM27.9393 12.6735C26.8405 12.7863 26.0412 13.7684 26.154 14.8672C26.2668 15.966 27.249 16.7653 28.3478 16.6525L27.9393 12.6735ZM43.8095 23.0907L41.8568 23.5231C41.8673 23.5708 41.8796 23.6181 41.8937 23.6649L43.8095 23.0907ZM38.5875 36.7861L37.0708 35.4824C36.759 35.8452 36.5875 36.3078 36.5875 36.7861H38.5875ZM36.5875 41C36.5875 42.1046 37.4829 43 38.5875 43C39.6921 43 40.5875 42.1046 40.5875 41H36.5875ZM30.3211 41C30.3211 42.1046 31.2166 43 32.3211 43C33.4257 43 34.3211 42.1046 34.3211 41H30.3211ZM15.6996 41C15.6996 42.1046 16.595 43 17.6996 43C18.8042 43 19.6996 42.1046 19.6996 41H15.6996ZM4.79681 10.4801C4.2337 9.53348 3.83121 7.90473 4.07022 6.50646C4.18361 5.8431 4.42683 5.31167 4.78318 4.9167C5.12657 4.5361 5.67486 4.16978 6.60678 3.98171L5.8155 0.0607615C4.13644 0.39961 2.79175 1.15272 1.81332 2.23716C0.847857 3.30723 0.340399 4.58646 0.127407 5.8325C-0.286349 8.25304 0.355537 10.8381 1.35905 12.5251L4.79681 10.4801ZM6.36142 4.01558C7.10584 3.95949 7.65455 4.04959 8.26718 4.35033C8.95036 4.68569 9.80958 5.33156 11.0573 6.58995L13.8977 3.7736C12.5345 2.39865 11.3049 1.38555 10.0298 0.759632C8.68422 0.0990849 7.40523 -0.0744116 6.06086 0.0268923L6.36142 4.01558ZM10.9974 6.52686L22.4858 19.1685L25.446 16.4783L13.9576 3.83669L10.9974 6.52686ZM22.3609 16.63L19.2277 20.8439L22.4376 23.2306L25.5708 19.0168L22.3609 16.63ZM17.3544 9.53291C14.9874 9.94752 11.454 11.1179 8.61386 13.7352C5.68497 16.4343 3.63629 20.5512 4.22097 26.4488L8.20146 26.0541C7.74174 21.417 9.31118 18.5321 11.3245 16.6767C13.4266 14.7396 16.1595 13.8031 18.0446 13.4729L17.3544 9.53291ZM4.23797 26.5775C4.83217 30.1737 6.46206 33.6577 10.0325 37.1604L12.8337 34.305C9.84384 31.3718 8.63465 28.65 8.18446 25.9254L4.23797 26.5775ZM9.43312 35.7327V41H13.4331V35.7327H9.43312ZM28.3478 16.6525C30.339 16.4481 33.4902 16.562 36.2723 17.5951C38.9996 18.6079 41.166 20.4031 41.8568 23.5231L45.7622 22.6584C44.6895 17.8131 41.2273 15.1682 37.6647 13.8453C34.1568 12.5427 30.3568 12.4253 27.9393 12.6735L28.3478 16.6525ZM41.8937 23.6649C42.0356 24.1386 42.1403 25.5984 41.4861 27.7948C40.8523 29.9225 39.541 32.6086 37.0708 35.4824L40.1042 38.0898C42.9245 34.8087 44.5181 31.6277 45.3196 28.9367C46.1007 26.3145 46.1711 24.0041 45.7253 22.5166L41.8937 23.6649ZM36.5875 36.7861V41H40.5875V36.7861H36.5875ZM34.3211 41C34.3211 38.3159 33.1245 36.1701 31.3147 34.7422C29.5493 33.3494 27.2649 32.6792 25.0104 32.6792V36.6792C26.5162 36.6792 27.8871 37.133 28.8371 37.8825C29.7425 38.5968 30.3211 39.6114 30.3211 41H34.3211ZM25.0104 32.6792C22.7559 32.6792 20.4714 33.3494 18.7061 34.7422C16.8962 36.1701 15.6996 38.3159 15.6996 41H19.6996C19.6996 39.6114 20.2782 38.5968 21.1836 37.8825C22.1336 37.133 23.5045 36.6792 25.0104 36.6792V32.6792Z" fill="black" fill-opacity="0.3"/>
</svg>
