<svg width="44" height="44" viewBox="0 0 44 44" fill="none" xmlns="http://www.w3.org/2000/svg">
<path d="M30.1658 4.39915C31.9914 4.39915 33.7291 4.88305 35.2028 5.85084C37.7103 7.47849 39.25 9.96395 39.6019 12.8453C39.7277 14.241 39.5468 15.6474 39.0719 16.9658C38.5969 18.2842 37.8394 19.4828 36.8525 20.4777C35.3128 21.9953 33.3551 22.9631 31.1996 23.1831C26.9984 23.623 23.3031 25.2946 20.5536 28.088C20.2212 28.4123 19.7752 28.5939 19.3108 28.5939C18.8464 28.5939 18.4004 28.4123 18.0681 28.088L15.8905 25.9105C15.7366 25.758 15.6145 25.5764 15.5314 25.3762C15.4484 25.1761 15.4059 24.9614 15.4066 24.7448C15.4066 24.1949 15.6485 23.711 16.1104 23.2491C18.7719 20.5657 20.3996 17.0024 20.7955 12.9113C21.0815 9.98594 22.6432 7.47849 25.1947 5.82885C26.6464 4.88305 28.3621 4.39915 30.1658 4.39915ZM30.1658 0.000106812C27.5922 0.000106812 25.0187 0.703955 22.7972 2.13365C18.9259 4.61911 16.7923 8.49027 16.4184 12.4934C16.1324 15.3968 15.0326 18.1022 13.009 20.1257L12.943 20.1917C10.3915 22.7432 10.3915 26.6363 12.7891 29.0118L14.9667 31.1894C16.1764 32.3991 17.7381 32.993 19.2998 32.993C20.8615 32.993 22.4452 32.3991 23.655 31.1894C25.7886 29.0558 28.604 27.8901 31.6615 27.5601C34.6749 27.2302 37.6223 25.9105 39.9539 23.601C41.4167 22.1403 42.5323 20.3694 43.2184 18.4193C43.9045 16.4692 44.1433 14.3899 43.9174 12.3351C43.6914 10.2802 43.0063 8.30248 41.9129 6.5481C40.8195 4.79372 39.3456 3.30759 37.6003 2.19963C35.3788 0.72595 32.7832 0.000106812 30.1658 0.000106812ZM9.37973 39.2836C9.97362 40.5153 9.77565 42.011 8.74185 43.0228C8.29411 43.4773 7.72346 43.7912 7.09988 43.9261C6.47631 44.0609 5.82693 44.0108 5.23141 43.782C4.63588 43.5531 4.12011 43.1554 3.74734 42.6377C3.37458 42.1199 3.16104 41.5046 3.13292 40.8673C2.49555 40.8391 1.88025 40.6256 1.36248 40.2529C0.84472 39.8801 0.447012 39.3643 0.218143 38.7688C-0.0107255 38.1733 -0.0608017 37.524 0.074057 36.9004C0.208916 36.2768 0.522845 35.7062 0.977337 35.2585C1.98914 34.2467 3.50685 34.0267 4.71662 34.6206L10.1716 29.2758C10.4795 29.6937 10.8315 30.1776 11.2274 30.5735L13.405 32.751C13.8669 33.1909 14.3068 33.5648 14.8787 33.8948L9.37973 39.2836Z" fill="black" fill-opacity="0.3"/>
</svg>
